<?xml version="1.0" standalone="no"?>
<!DOCTYPE svg PUBLIC "-//W3C//DTD SVG 20010904//EN"
 "http://www.w3.org/TR/2001/REC-SVG-20010904/DTD/svg10.dtd">
<svg version="1.0" xmlns="http://www.w3.org/2000/svg"
 width="640.000000pt" height="640.000000pt" viewBox="0 0 640.000000 640.000000"
 preserveAspectRatio="xMidYMid meet">
<metadata>
Created by potrace 1.11, written by Peter Selinger 2001-2013
</metadata>
<g transform="translate(0.000000,640.000000) scale(0.100000,-0.100000)"
fill="#000000" stroke="none">
<path d="M2850 5970 c-332 -49 -573 -120 -847 -250 -408 -194 -770 -491 -1048
-860 -27 -36 -53 -68 -58 -71 -4 -3 7 -18 26 -32 44 -33 77 -101 77 -155 0
-143 -136 -237 -272 -188 l-37 13 -36 -80 c-113 -247 -191 -530 -227 -817 -16
-135 -16 -525 0 -660 36 -293 116 -574 241 -852 l21 -47 35 15 c71 29 171 8
222 -47 77 -84 66 -228 -22 -295 l-34 -25 101 -127 c473 -595 1132 -970 1868
-1062 47 -6 96 -13 110 -16 23 -4 27 0 37 39 52 194 336 194 384 1 11 -41 14
-45 38 -40 14 3 64 10 111 16 499 62 944 245 1358 557 189 143 375 332 559
566 l52 66 -34 25 c-88 67 -99 211 -22 295 51 55 151 76 222 46 35 -14 35 -14
49 18 8 18 29 68 48 112 297 686 286 1548 -26 2231 l-37 81 -37 -13 c-136 -49
-272 45 -272 188 0 54 33 122 75 154 l34 25 -101 127 c-473 595 -1132 970
-1868 1062 -47 6 -97 13 -111 16 -24 5 -27 1 -38 -40 -48 -193 -332 -193 -383
0 -7 24 -17 44 -23 43 -5 -1 -66 -9 -135 -19z m-807 -581 c29 -15 56 -50 57
-71 0 -17 59 -18 1100 -18 1041 0 1100 1 1100 18 1 21 28 56 57 71 65 33 143
-18 143 -93 0 -13 -11 -40 -25 -60 l-25 -37 552 -949 c550 -944 553 -949 585
-950 64 0 113 -44 113 -100 0 -58 -59 -107 -118 -98 -28 4 -35 -8 -574 -955
l-546 -960 19 -31 c22 -36 24 -64 7 -101 -13 -29 -55 -55 -88 -55 -49 0 -99
47 -100 93 l0 27 -1100 0 -1100 0 0 -29 c0 -54 -68 -101 -125 -87 -79 20 -98
117 -35 176 l29 27 -554 949 -554 949 -36 -3 c-94 -9 -151 68 -110 147 16 33
60 54 101 49 29 -3 38 12 575 957 l545 960 -18 30 c-53 88 36 190 125 144z"/>
<path d="M2925 5185 c-315 -42 -661 -186 -928 -386 -506 -380 -797 -964 -797
-1599 0 -729 380 -1380 1020 -1745 517 -295 1161 -337 1724 -113 460 184 844
541 1056 983 138 288 200 557 200 875 0 546 -210 1047 -599 1428 -307 301
-724 505 -1141 558 -138 17 -399 17 -535 -1z m535 -410 c214 -38 391 -103 575
-213 193 -115 400 -323 523 -524 162 -264 235 -528 235 -843 0 -206 -25 -352
-95 -545 -161 -446 -533 -809 -988 -963 -134 -46 -230 -65 -385 -77 -341 -28
-666 50 -963 232 -294 180 -544 484 -659 801 -69 192 -97 355 -97 562 1 306
76 572 236 833 124 203 330 409 523 524 224 134 464 210 725 232 74 6 290 -5
370 -19z"/>
<path d="M2980 4381 c-261 -54 -443 -151 -626 -335 -234 -234 -354 -520 -354
-846 0 -326 120 -612 354 -846 234 -234 520 -354 846 -354 326 0 612 120 846
354 234 234 354 520 354 846 0 326 -120 612 -354 846 -186 187 -381 289 -645
338 -111 21 -310 20 -421 -3z m333 -392 c98 -14 156 -34 262 -87 166 -85 319
-263 380 -442 74 -218 49 -466 -67 -665 -61 -105 -202 -240 -306 -293 -111
-58 -173 -78 -286 -93 -231 -30 -464 46 -637 208 -191 181 -283 426 -251 676
24 192 93 331 236 472 124 123 253 192 416 220 95 17 163 18 253 4z"/>
</g>
</svg>
